<svg width="64" height="64" viewBox="0 0 64 64" fill="none" xmlns="http://www.w3.org/2000/svg">
<g id="Cloud icon frame">
<rect width="64" height="64" rx="32" fill="#6060FE"/>
<path id="Vector" d="M41.6451 41.7986V27.7054C41.6451 27.4599 42.2247 26.8954 41.5389 26.4781L31.6844 19.9327L21.985 26.3063L21.7197 38.4645L26.3122 36.0754C29.1657 34.9749 32.2355 34.4349 35.3094 34.7213C37.0974 34.889 41.7185 35.6049 40.2898 38.3254C39.3019 40.2031 36.5953 38.5913 34.9012 38.4563C31.811 38.2067 28.4758 38.9145 25.7733 40.4199C23.6832 41.5817 21.5931 44.7522 19.0499 42.8008C17.7069 41.7699 18.1926 40.5426 18.1845 39.2499C18.1518 35.1467 17.7967 29.8777 18.1682 25.9177C18.2988 24.539 18.6417 24.2404 19.6541 23.414C21.6462 21.7817 27.8104 17.6581 30.0679 16.5413C31.0884 16.0381 31.9743 15.7436 33.0928 16.304C36.3708 18.8199 40.3306 20.8245 43.58 23.3281C44.6904 24.1831 45.2742 24.3467 45.4252 25.9177C45.8171 29.9922 45.7314 37.7731 45.4252 41.9172C44.9966 47.714 40.6041 44.9608 37.1097 44.6867C34.3379 44.4658 30.8312 44.6131 28.3207 45.8567C27.4103 46.3067 25.9285 47.8367 25.3284 47.9676C23.1852 48.4422 22.2953 46.229 23.7404 44.5967C27.541 40.3013 36.5586 40.3422 41.6532 41.7986H41.6451Z" fill="white"/>
</g>
</svg>
