<svg width="1143" height="330" viewBox="0 0 1143 330" fill="none" xmlns="http://www.w3.org/2000/svg">
<g clip-path="url(#clip0_1876_1084)">
<path d="M556.182 80.8446L556.182 80.8447L556.19 80.8439C557.039 80.7716 557.846 80.7345 558.681 80.7561C578.823 81.2757 593.65 90.0466 607.236 104.198L607.596 104.573L608.073 104.367C615.039 101.369 621.951 99.0795 629.443 98.2222C646.294 96.2934 662.432 101.232 675.629 111.816C692.498 125.344 698.44 142.13 700.705 162.934L700.747 163.323L701.091 163.511C709.497 168.103 716.318 173.187 721.623 181.223C728.709 191.955 730.68 204.257 728.042 216.81C725.361 229.575 717.749 240.204 706.768 247.253C694.911 254.863 681.806 255.759 668.202 252.778L667.77 252.684L667.478 253.015C662.251 258.958 656.91 264.152 650.333 268.511C634.078 279.28 616.178 281.251 597.396 277.506C583.59 274.077 573.013 267.127 561.802 258.462L561.311 258.082L560.846 258.494C555.44 263.28 549.816 267.991 543.409 271.173C532.558 276.563 519.122 277.585 507.643 273.659C496.864 269.973 489.004 262.681 483.951 252.571L483.766 252.199L483.352 252.159C470.225 250.901 458.446 245.676 448.967 236.456C437.964 225.752 431.035 209.733 430.842 194.405C430.636 177.897 437.761 161.386 449.371 149.651L448.838 149.124L449.371 149.651C461.083 137.811 477.095 133.058 493.492 133.011L494.079 133.01L494.218 132.44C496.783 121.988 501.041 112.629 508.091 104.428C520.84 89.5967 536.827 82.2722 556.182 80.8446Z" fill="url(#paint0_linear_1876_1084)" fill-opacity="0.15" stroke="url(#paint1_linear_1876_1084)" stroke-width="1.5"/>
<rect x="923" width="90" height="90" rx="45" fill="#6060FE" fill-opacity="0.2"/>
<circle cx="968" cy="45" r="37.75" fill="white" fill-opacity="0.2" stroke="white" stroke-width="0.5"/>
<rect x="936" y="13" width="64" height="64" rx="32" fill="#6060FE"/>
<path d="M979.314 33.6863C976.292 30.6643 972.274 29 968 29C963.726 29 959.708 30.6643 956.686 33.6863C953.664 36.7083 952 40.7263 952 45C952 49.2738 953.664 53.2917 956.686 56.3137C959.708 59.3358 963.726 61 968 61C972.274 61 976.292 59.3357 979.314 56.3137C982.336 53.2917 984 49.2737 984 45C984 40.7262 982.336 36.7083 979.314 33.6863ZM958.014 35.0135C959.42 33.6066 961.072 32.5334 962.872 31.833C962.393 32.4316 961.944 33.1197 961.533 33.8936C961.055 34.7923 960.643 35.7794 960.3 36.8337C959.111 36.6364 958.01 36.3938 957.026 36.109C957.334 35.7299 957.663 35.3639 958.014 35.0135ZM955.889 37.7241C957.04 38.0926 958.357 38.4035 959.793 38.6496C959.393 40.3475 959.158 42.1746 959.102 44.0616H953.909C954.056 41.797 954.736 39.6358 955.889 37.7241ZM955.787 52.1024C954.696 50.2337 954.052 48.1349 953.908 45.9385H959.105C959.166 47.7715 959.397 49.5467 959.784 51.2001C958.318 51.4377 956.968 51.7407 955.787 52.1024ZM958.014 54.9866C957.615 54.5877 957.243 54.169 956.899 53.7331C957.919 53.4502 959.06 53.2107 960.287 53.0185C960.633 54.0875 961.05 55.0876 961.533 55.9974C961.981 56.8407 962.474 57.5817 963.002 58.2165C961.152 57.5176 959.454 56.4272 958.014 54.9866ZM967.062 58.8822C965.636 58.4829 964.288 57.1812 963.191 55.1167C962.807 54.3947 962.47 53.607 962.181 52.7675C963.727 52.5974 965.371 52.4968 967.062 52.4732V58.8822ZM967.062 50.5961C965.187 50.6217 963.36 50.7394 961.65 50.9403C961.272 49.3802 961.045 47.6917 960.983 45.9385H967.062V50.5961H967.062ZM967.062 44.0615H960.979C961.036 42.2594 961.267 40.5237 961.656 38.924C963.356 39.1365 965.179 39.2657 967.062 39.3027V44.0615ZM967.062 37.4255C965.365 37.3913 963.724 37.2807 962.189 37.1002C962.476 36.2695 962.81 35.4897 963.191 34.7743C964.287 32.7098 965.636 31.408 967.062 31.0087V37.4255ZM980.17 37.8238C981.287 39.7108 981.947 41.8362 982.092 44.0615H976.899C976.843 42.1963 976.612 40.3897 976.221 38.7086C977.666 38.4751 978.999 38.178 980.17 37.8238ZM977.986 35.0135C978.363 35.3903 978.715 35.7853 979.044 36.1954C978.039 36.4697 976.92 36.7025 975.718 36.8899C975.372 35.8144 974.953 34.8083 974.467 33.8936C974.056 33.1197 973.607 32.4316 973.128 31.833C974.928 32.5334 976.58 33.6066 977.986 35.0135ZM968.939 45.9385H975.017C974.954 47.7053 974.724 49.4067 974.342 50.9768C972.642 50.7655 970.82 50.6374 968.939 50.6014V45.9385ZM968.939 44.0615V39.309C970.814 39.2843 972.642 39.1676 974.355 38.9675C974.737 40.5551 974.964 42.2757 975.021 44.0615H968.939ZM968.938 31.0087H968.938C970.364 31.408 971.712 32.7098 972.809 34.7743C973.196 35.501 973.535 36.2941 973.824 37.1398C972.277 37.3093 970.63 37.4091 968.938 37.4319V31.0087ZM968.939 58.8822V52.4786C970.634 52.5119 972.273 52.6215 973.807 52.8009C973.521 53.6279 973.188 54.4042 972.81 55.1167C971.713 57.1812 970.364 58.4829 968.939 58.8822ZM977.986 54.9866C976.546 56.4272 974.848 57.5176 972.998 58.2164C973.526 57.5817 974.019 56.8407 974.467 55.9974C974.943 55.1011 975.354 54.1169 975.697 53.0658C976.914 53.2666 978.039 53.5149 979.042 53.807C978.714 54.2161 978.363 54.6104 977.986 54.9866ZM980.163 52.1881C978.998 51.8137 977.663 51.4986 976.205 51.25C976.599 49.5825 976.833 47.79 976.895 45.9385H982.092C981.946 48.1684 981.284 50.2981 980.163 52.1881Z" fill="white"/>
<path d="M670 109.5C670 111.709 671.791 113.5 674 113.5C676.209 113.5 678 111.709 678 109.5C678 107.291 676.209 105.5 674 105.5C671.791 105.5 670 107.291 670 109.5ZM723 75L723.278 75.6965L723 75ZM819.5 75L819.206 74.3098L819.5 75ZM862 45L861.734 44.2988L862 45ZM932 45C932 47.2091 933.791 49 936 49C938.209 49 940 47.2091 940 45C940 42.7909 938.209 41 936 41C933.791 41 932 42.7909 932 45ZM680.07 105.018C680.381 104.745 680.412 104.271 680.139 103.96C679.866 103.648 679.392 103.617 679.08 103.89L680.07 105.018ZM690.688 94.2485C690.362 94.5043 690.305 94.9757 690.561 95.3016C690.817 95.6274 691.288 95.6842 691.614 95.4284L690.688 94.2485ZM703.714 86.5577C704.057 86.3255 704.147 85.8591 703.915 85.5162C703.682 85.1732 703.216 85.0835 702.873 85.3157L703.714 86.5577ZM715.83 77.4923C715.463 77.6833 715.319 78.1361 715.51 78.5037C715.701 78.8712 716.154 79.0143 716.522 78.8233L715.83 77.4923ZM730.989 73.2505C731.392 73.1551 731.641 72.751 731.546 72.3479C731.451 71.9448 731.046 71.6954 730.643 71.7908L730.989 73.2505ZM747.122 70.376C746.709 70.3554 746.357 70.6741 746.336 71.0878C746.316 71.5015 746.634 71.8536 747.048 71.8741L747.122 70.376ZM763.134 74.1897C763.539 74.2759 763.937 74.0174 764.023 73.6122C764.11 73.2071 763.851 72.8088 763.446 72.7225L763.134 74.1897ZM779.432 76.3317C779.027 76.2466 778.629 76.5063 778.544 76.9117C778.459 77.3171 778.719 77.7146 779.124 77.7997L779.432 76.3317ZM795.467 80.0399C795.881 80.056 796.229 79.7335 796.245 79.3196C796.262 78.9057 795.939 78.5571 795.525 78.541L795.467 80.0399ZM811.55 76.9167C811.149 77.02 810.908 77.4289 811.011 77.8301C811.115 78.2312 811.523 78.4726 811.925 78.3693L811.55 76.9167ZM825.73 72.7059C826.088 72.4965 826.208 72.037 825.998 71.6796C825.789 71.3223 825.33 71.2023 824.972 71.4117L825.73 72.7059ZM835.311 63.665C835.003 63.9419 834.978 64.4161 835.255 64.7241C835.532 65.0322 836.006 65.0575 836.314 64.7806L835.311 63.665ZM845.908 55.8812C846.219 55.6078 846.25 55.134 845.976 54.8228C845.703 54.5116 845.229 54.4809 844.918 54.7542L845.908 55.8812ZM855.688 47.0654C855.323 47.2628 855.188 47.7181 855.386 48.0822C855.583 48.4463 856.038 48.5815 856.403 48.384L855.688 47.0654ZM871.13 43.1718C871.536 43.0875 871.796 42.6904 871.712 42.2848C871.627 41.8793 871.23 41.6189 870.825 41.7032L871.13 43.1718ZM889.539 39.7372C889.125 39.7472 888.798 40.091 888.808 40.5051C888.818 40.9192 889.162 41.2468 889.576 41.2368L889.539 39.7372ZM908.188 41.8302C908.601 41.8635 908.962 41.5558 908.996 41.1429C909.029 40.7301 908.721 40.3684 908.308 40.335L908.188 41.8302ZM926.936 42.5866C926.527 42.5212 926.142 42.7998 926.077 43.2088C926.011 43.6179 926.29 44.0024 926.699 44.0678L926.936 42.5866ZM674 109.5C674.517 110.043 674.517 110.043 674.517 110.043C674.517 110.043 674.517 110.043 674.517 110.043C674.517 110.043 674.517 110.043 674.517 110.043C674.518 110.043 674.518 110.042 674.518 110.042C674.519 110.041 674.521 110.04 674.523 110.038C674.526 110.034 674.532 110.029 674.54 110.021C674.556 110.006 674.58 109.984 674.611 109.954C674.674 109.894 674.769 109.806 674.893 109.689C675.142 109.457 675.51 109.114 675.987 108.677C676.941 107.801 678.331 106.543 680.07 105.018L679.08 103.89C677.332 105.424 675.934 106.689 674.973 107.571C674.492 108.013 674.12 108.358 673.868 108.594C673.742 108.712 673.646 108.802 673.582 108.863C673.549 108.894 673.525 108.917 673.508 108.933C673.5 108.94 673.494 108.946 673.49 108.95C673.487 108.952 673.486 108.954 673.485 108.955C673.484 108.956 673.484 108.956 673.483 108.956C673.483 108.956 673.483 108.957 673.483 108.957C673.483 108.957 673.483 108.957 673.483 108.957C673.483 108.957 673.483 108.957 674 109.5ZM691.614 95.4284C695.337 92.5061 699.447 89.4474 703.714 86.5577L702.873 85.3157C698.57 88.2294 694.432 91.3098 690.688 94.2485L691.614 95.4284ZM716.522 78.8233C718.808 77.635 721.071 76.5784 723.278 75.6965L722.722 74.3035C720.461 75.2071 718.152 76.2855 715.83 77.4923L716.522 78.8233ZM723.278 75.6965C725.894 74.6513 728.461 73.8485 730.989 73.2505L730.643 71.7908C728.044 72.4057 725.406 73.2309 722.722 74.3035L723.278 75.6965ZM747.048 71.8741C752.492 72.1449 757.822 73.0591 763.134 74.1897L763.446 72.7225C758.1 71.5847 752.682 70.6525 747.122 70.376L747.048 71.8741ZM779.124 77.7997C784.485 78.9246 789.91 79.8235 795.467 80.0399L795.525 78.541C790.088 78.3293 784.756 77.4488 779.432 76.3317L779.124 77.7997ZM811.925 78.3693C814.508 77.704 817.129 76.8234 819.794 75.6902L819.206 74.3098C816.611 75.4138 814.061 76.2701 811.55 76.9167L811.925 78.3693ZM819.794 75.6902C821.939 74.778 823.904 73.776 825.73 72.7059L824.972 71.4117C823.199 72.4507 821.291 73.4235 819.206 74.3098L819.794 75.6902ZM836.314 64.7806C837.963 63.2985 839.547 61.7885 841.122 60.2954C842.7 58.7996 844.271 57.3192 845.908 55.8812L844.918 54.7542C843.257 56.2131 841.668 57.7112 840.09 59.2068C838.51 60.705 836.942 62.1992 835.311 63.665L836.314 64.7806ZM856.403 48.384C858.204 47.4074 860.144 46.5062 862.266 45.7012L861.734 44.2988C859.548 45.1281 857.546 46.0575 855.688 47.0654L856.403 48.384ZM862.266 45.7012C865.025 44.6543 868.004 43.8218 871.13 43.1718L870.825 41.7032C867.636 42.3661 864.58 43.219 861.734 44.2988L862.266 45.7012ZM889.576 41.2368C895.932 41.0833 902.297 41.355 908.188 41.8302L908.308 40.335C902.379 39.8568 895.96 39.5822 889.539 39.7372L889.576 41.2368ZM926.699 44.0678C929.523 44.519 931.81 44.9358 933.391 45.2395C934.182 45.3914 934.795 45.515 935.211 45.6005C935.418 45.6432 935.576 45.6765 935.682 45.6989C935.735 45.7101 935.775 45.7187 935.801 45.7244C935.815 45.7272 935.824 45.7293 935.831 45.7308C935.834 45.7315 935.837 45.732 935.838 45.7323C935.839 45.7325 935.839 45.7326 935.84 45.7327C935.84 45.7327 935.84 45.7327 935.84 45.7328C935.84 45.7328 935.84 45.7328 935.84 45.7328C935.84 45.7328 935.84 45.7328 936 45C936.16 44.2672 936.16 44.2672 936.16 44.2672C936.16 44.2672 936.16 44.2672 936.16 44.2672C936.159 44.2671 936.159 44.2671 936.159 44.267C936.158 44.2669 936.158 44.2668 936.157 44.2666C936.155 44.2662 936.152 44.2656 936.149 44.2648C936.141 44.2632 936.131 44.2609 936.117 44.2579C936.089 44.252 936.048 44.2431 935.993 44.2316C935.885 44.2085 935.724 44.1747 935.513 44.1313C935.092 44.0446 934.472 43.9197 933.674 43.7665C932.08 43.4601 929.777 43.0405 926.936 42.5866L926.699 44.0678Z" fill="#6060FE"/>
<rect width="90" height="90" rx="45" transform="matrix(1 0 0 -1 923 330)" fill="#6060FE" fill-opacity="0.2"/>
<circle cx="38" cy="38" r="37.75" transform="matrix(1 0 0 -1 930 323)" fill="white" fill-opacity="0.2" stroke="white" stroke-width="0.5"/>
<rect width="64" height="64" rx="32" transform="matrix(1 0 0 -1 936 317)" fill="#6060FE"/>
<path d="M979.314 296.314C976.292 299.336 972.274 301 968 301C963.726 301 959.708 299.336 956.686 296.314C953.664 293.292 952 289.274 952 285C952 280.726 953.664 276.708 956.686 273.686C959.708 270.664 963.726 269 968 269C972.274 269 976.292 270.664 979.314 273.686C982.336 276.708 984 280.726 984 285C984 289.274 982.336 293.292 979.314 296.314ZM958.014 294.986C959.42 296.393 961.072 297.467 962.872 298.167C962.393 297.568 961.944 296.88 961.533 296.106C961.055 295.208 960.643 294.221 960.3 293.166C959.111 293.364 958.01 293.606 957.026 293.891C957.334 294.27 957.663 294.636 958.014 294.986ZM955.889 292.276C957.04 291.907 958.357 291.597 959.793 291.35C959.393 289.652 959.158 287.825 959.102 285.938H953.909C954.056 288.203 954.736 290.364 955.889 292.276ZM955.787 277.898C954.696 279.766 954.052 281.865 953.908 284.062H959.105C959.166 282.228 959.397 280.453 959.784 278.8C958.318 278.562 956.968 278.259 955.787 277.898ZM958.014 275.013C957.615 275.412 957.243 275.831 956.899 276.267C957.919 276.55 959.06 276.789 960.287 276.981C960.633 275.913 961.05 274.912 961.533 274.003C961.981 273.159 962.474 272.418 963.002 271.784C961.152 272.482 959.454 273.573 958.014 275.013ZM967.062 271.118C965.636 271.517 964.288 272.819 963.191 274.883C962.807 275.605 962.47 276.393 962.181 277.233C963.727 277.403 965.371 277.503 967.062 277.527V271.118ZM967.062 279.404C965.187 279.378 963.36 279.261 961.65 279.06C961.272 280.62 961.045 282.308 960.983 284.061H967.062V279.404H967.062ZM967.062 285.938H960.979C961.036 287.741 961.267 289.476 961.656 291.076C963.356 290.864 965.179 290.734 967.062 290.697V285.938ZM967.062 292.574C965.365 292.609 963.724 292.719 962.189 292.9C962.476 293.731 962.81 294.51 963.191 295.226C964.287 297.29 965.636 298.592 967.062 298.991V292.574ZM980.17 292.176C981.287 290.289 981.947 288.164 982.092 285.938H976.899C976.843 287.804 976.612 289.61 976.221 291.291C977.666 291.525 978.999 291.822 980.17 292.176ZM977.986 294.986C978.363 294.61 978.715 294.215 979.044 293.805C978.039 293.53 976.92 293.297 975.718 293.11C975.372 294.186 974.953 295.192 974.467 296.106C974.056 296.88 973.607 297.568 973.128 298.167C974.928 297.467 976.58 296.393 977.986 294.986ZM968.939 284.061H975.017C974.954 282.295 974.724 280.593 974.342 279.023C972.642 279.235 970.82 279.363 968.939 279.399V284.061ZM968.939 285.938V290.691C970.814 290.716 972.642 290.832 974.355 291.033C974.737 289.445 974.964 287.724 975.021 285.938H968.939ZM968.938 298.991H968.938C970.364 298.592 971.712 297.29 972.809 295.226C973.196 294.499 973.535 293.706 973.824 292.86C972.277 292.691 970.63 292.591 968.938 292.568V298.991ZM968.939 271.118V277.521C970.634 277.488 972.273 277.379 973.807 277.199C973.521 276.372 973.188 275.596 972.81 274.883C971.713 272.819 970.364 271.517 968.939 271.118ZM977.986 275.013C976.546 273.573 974.848 272.482 972.998 271.784C973.526 272.418 974.019 273.159 974.467 274.003C974.943 274.899 975.354 275.883 975.697 276.934C976.914 276.733 978.039 276.485 979.042 276.193C978.714 275.784 978.363 275.39 977.986 275.013ZM980.163 277.812C978.998 278.186 977.663 278.501 976.205 278.75C976.599 280.418 976.833 282.21 976.895 284.061H982.092C981.946 281.832 981.284 279.702 980.163 277.812Z" fill="white"/>
<path d="M703 248C703 245.791 704.791 244 707 244C709.21 244 711 245.791 711 248C711 250.209 709.21 252 707 252C704.791 252 703 250.209 703 248ZM723 255L723.279 254.304L723 255ZM819.5 255L819.207 255.69L819.5 255ZM862 285L861.734 285.701L862 285ZM932 285C932 282.791 933.791 281 936 281C938.21 281 940 282.791 940 285C940 287.209 938.21 289 936 289C933.791 289 932 287.209 932 285ZM710.109 248.909C710.489 249.073 710.665 249.514 710.501 249.894C710.337 250.275 709.896 250.45 709.515 250.287L710.109 248.909ZM718.298 253.919C717.914 253.764 717.728 253.327 717.884 252.943C718.039 252.559 718.476 252.373 718.86 252.528L718.298 253.919ZM730.989 256.75C731.392 256.845 731.642 257.249 731.546 257.652C731.451 258.055 731.047 258.305 730.644 258.209L730.989 256.75ZM747.123 259.624C746.709 259.645 746.357 259.326 746.336 258.912C746.316 258.498 746.635 258.146 747.048 258.126L747.123 259.624ZM763.134 255.81C763.539 255.724 763.938 255.983 764.024 256.388C764.11 256.793 763.852 257.191 763.446 257.277L763.134 255.81ZM779.433 253.668C779.027 253.753 778.63 253.494 778.545 253.088C778.46 252.683 778.719 252.285 779.125 252.2L779.433 253.668ZM795.467 249.96C795.881 249.944 796.23 250.267 796.246 250.68C796.262 251.094 795.94 251.443 795.526 251.459L795.467 249.96ZM811.551 253.083C811.15 252.98 810.908 252.571 811.012 252.17C811.115 251.769 811.524 251.527 811.925 251.631L811.551 253.083ZM825.731 257.294C826.088 257.504 826.208 257.963 825.999 258.32C825.789 258.678 825.33 258.798 824.973 258.588L825.731 257.294ZM835.312 266.335C835.004 266.058 834.978 265.584 835.255 265.276C835.532 264.968 836.006 264.942 836.314 265.219L835.312 266.335ZM845.908 274.119C846.219 274.392 846.25 274.866 845.977 275.177C845.703 275.488 845.23 275.519 844.918 275.246L845.908 274.119ZM855.688 282.935C855.324 282.737 855.189 282.282 855.386 281.918C855.584 281.554 856.039 281.419 856.403 281.616L855.688 282.935ZM871.13 286.828C871.536 286.913 871.796 287.31 871.712 287.715C871.628 288.121 871.231 288.381 870.825 288.297L871.13 286.828ZM889.54 290.263C889.126 290.253 888.798 289.909 888.808 289.495C888.818 289.081 889.162 288.753 889.576 288.763L889.54 290.263ZM908.188 288.17C908.601 288.137 908.963 288.444 908.996 288.857C909.029 289.27 908.722 289.632 908.309 289.665L908.188 288.17ZM926.936 287.413C926.527 287.479 926.142 287.2 926.077 286.791C926.012 286.382 926.29 285.998 926.699 285.932L926.936 287.413ZM707 248C706.786 248.719 706.786 248.719 706.786 248.719C706.786 248.719 706.786 248.719 706.786 248.719C706.786 248.719 706.786 248.719 706.786 248.719C706.786 248.719 706.786 248.719 706.785 248.718C706.784 248.718 706.783 248.718 706.781 248.717C706.776 248.716 706.77 248.714 706.761 248.711C706.743 248.706 706.717 248.699 706.686 248.69C706.623 248.673 706.542 248.651 706.463 248.633C706.377 248.613 706.321 248.603 706.298 248.6C706.278 248.598 706.32 248.605 706.389 248.596C706.419 248.592 706.519 248.578 706.633 248.515C706.764 248.441 706.956 248.273 706.999 247.984C707.036 247.736 706.937 247.557 706.9 247.498C706.857 247.428 706.813 247.387 706.801 247.375C706.774 247.35 706.766 247.349 706.808 247.375C706.882 247.423 707.03 247.506 707.29 247.635C707.802 247.891 708.679 248.293 710.109 248.909L709.515 250.287C708.079 249.668 707.172 249.253 706.62 248.978C706.347 248.842 706.143 248.731 706 248.639C705.932 248.596 705.849 248.539 705.776 248.47C705.74 248.437 705.68 248.376 705.626 248.29C705.579 248.214 705.477 248.021 705.515 247.762C705.56 247.461 705.759 247.285 705.902 247.204C706.028 247.134 706.145 247.115 706.197 247.109C706.308 247.094 706.409 247.103 706.46 247.109C706.577 247.122 706.706 247.149 706.805 247.172C706.91 247.197 707.012 247.224 707.086 247.245C707.124 247.255 707.155 247.264 707.177 247.27C707.189 247.274 707.197 247.276 707.204 247.278C707.207 247.279 707.21 247.28 707.211 247.28C707.212 247.281 707.213 247.281 707.214 247.281C707.214 247.281 707.214 247.281 707.214 247.281C707.215 247.281 707.215 247.281 707.215 247.281C707.215 247.281 707.215 247.281 707 248ZM718.86 252.528C720.19 253.066 721.658 253.656 723.279 254.304L722.722 255.696C721.1 255.048 719.63 254.457 718.298 253.919L718.86 252.528ZM723.279 254.304C725.894 255.349 728.462 256.152 730.989 256.75L730.644 258.209C728.045 257.594 725.406 256.769 722.722 255.696L723.279 254.304ZM747.048 258.126C752.493 257.855 757.823 256.941 763.134 255.81L763.446 257.277C758.101 258.415 752.682 259.348 747.123 259.624L747.048 258.126ZM779.125 252.2C784.486 251.075 789.91 250.176 795.467 249.96L795.526 251.459C790.088 251.671 784.756 252.551 779.433 253.668L779.125 252.2ZM811.925 251.631C814.508 252.296 817.129 253.177 819.794 254.31L819.207 255.69C816.611 254.586 814.061 253.73 811.551 253.083L811.925 251.631ZM819.794 254.31C821.939 255.222 823.904 256.224 825.731 257.294L824.973 258.588C823.199 257.549 821.291 256.576 819.207 255.69L819.794 254.31ZM836.314 265.219C837.963 266.702 839.547 268.211 841.122 269.705C842.7 271.2 844.271 272.681 845.908 274.119L844.918 275.246C843.258 273.787 841.668 272.289 840.091 270.793C838.51 269.295 836.943 267.801 835.312 266.335L836.314 265.219ZM856.403 281.616C858.204 282.593 860.145 283.494 862.266 284.299L861.734 285.701C859.549 284.872 857.547 283.943 855.688 282.935L856.403 281.616ZM862.266 284.299C865.026 285.346 868.004 286.178 871.13 286.828L870.825 288.297C867.636 287.634 864.58 286.781 861.734 285.701L862.266 284.299ZM889.576 288.763C895.932 288.917 902.298 288.645 908.188 288.17L908.309 289.665C902.38 290.143 895.96 290.418 889.54 290.263L889.576 288.763ZM926.699 285.932C929.523 285.481 931.811 285.064 933.392 284.76C934.182 284.609 934.796 284.485 935.211 284.399C935.419 284.357 935.577 284.324 935.682 284.301C935.735 284.29 935.775 284.281 935.802 284.276C935.815 284.273 935.825 284.271 935.831 284.269C935.834 284.269 935.837 284.268 935.838 284.268C935.839 284.268 935.84 284.267 935.84 284.267C935.84 284.267 935.84 284.267 935.84 284.267C935.84 284.267 935.84 284.267 935.84 284.267C935.84 284.267 935.84 284.267 936 285C936.16 285.733 936.16 285.733 936.16 285.733C936.16 285.733 936.16 285.733 936.16 285.733C936.16 285.733 936.16 285.733 936.159 285.733C936.159 285.733 936.158 285.733 936.157 285.733C936.155 285.734 936.153 285.734 936.149 285.735C936.142 285.737 936.131 285.739 936.117 285.742C936.089 285.748 936.048 285.757 935.994 285.768C935.885 285.791 935.724 285.825 935.513 285.869C935.092 285.955 934.472 286.08 933.675 286.234C932.08 286.54 929.777 286.959 926.936 287.413L926.699 285.932Z" fill="#6060FE"/>
<rect x="1053" y="120" width="90" height="90" rx="45" fill="#6060FE" fill-opacity="0.2"/>
<circle cx="1098" cy="165" r="37.75" fill="white" fill-opacity="0.2" stroke="white" stroke-width="0.5"/>
<rect x="1066" y="133" width="64" height="64" rx="32" fill="#6060FE"/>
<path d="M1109.31 153.686C1106.29 150.664 1102.27 149 1098 149C1093.73 149 1089.71 150.664 1086.69 153.686C1083.66 156.708 1082 160.726 1082 165C1082 169.274 1083.66 173.292 1086.69 176.314C1089.71 179.336 1093.73 181 1098 181C1102.27 181 1106.29 179.336 1109.31 176.314C1112.34 173.292 1114 169.274 1114 165C1114 160.726 1112.34 156.708 1109.31 153.686ZM1088.01 155.014C1089.42 153.607 1091.07 152.533 1092.87 151.833C1092.39 152.432 1091.94 153.12 1091.53 153.894C1091.06 154.792 1090.64 155.779 1090.3 156.834C1089.11 156.636 1088.01 156.394 1087.03 156.109C1087.33 155.73 1087.66 155.364 1088.01 155.014ZM1085.89 157.724C1087.04 158.093 1088.36 158.403 1089.79 158.65C1089.39 160.348 1089.16 162.175 1089.1 164.062H1083.91C1084.06 161.797 1084.74 159.636 1085.89 157.724ZM1085.79 172.102C1084.7 170.234 1084.05 168.135 1083.91 165.938H1089.11C1089.17 167.772 1089.4 169.547 1089.78 171.2C1088.32 171.438 1086.97 171.741 1085.79 172.102ZM1088.01 174.987C1087.61 174.588 1087.24 174.169 1086.9 173.733C1087.92 173.45 1089.06 173.211 1090.29 173.019C1090.63 174.087 1091.05 175.088 1091.53 175.997C1091.98 176.841 1092.47 177.582 1093 178.216C1091.15 177.518 1089.45 176.427 1088.01 174.987ZM1097.06 178.882C1095.64 178.483 1094.29 177.181 1093.19 175.117C1092.81 174.395 1092.47 173.607 1092.18 172.767C1093.73 172.597 1095.37 172.497 1097.06 172.473V178.882ZM1097.06 170.596C1095.19 170.622 1093.36 170.739 1091.65 170.94C1091.27 169.38 1091.05 167.692 1090.98 165.939H1097.06V170.596H1097.06ZM1097.06 164.062H1090.98C1091.04 162.259 1091.27 160.524 1091.66 158.924C1093.36 159.136 1095.18 159.266 1097.06 159.303V164.062ZM1097.06 157.426C1095.36 157.391 1093.72 157.281 1092.19 157.1C1092.48 156.269 1092.81 155.49 1093.19 154.774C1094.29 152.71 1095.64 151.408 1097.06 151.009V157.426ZM1110.17 157.824C1111.29 159.711 1111.95 161.836 1112.09 164.062H1106.9C1106.84 162.196 1106.61 160.39 1106.22 158.709C1107.67 158.475 1109 158.178 1110.17 157.824ZM1107.99 155.014C1108.36 155.39 1108.72 155.785 1109.04 156.195C1108.04 156.47 1106.92 156.703 1105.72 156.89C1105.37 155.814 1104.95 154.808 1104.47 153.894C1104.06 153.12 1103.61 152.432 1103.13 151.833C1104.93 152.533 1106.58 153.607 1107.99 155.014ZM1098.94 165.939H1105.02C1104.95 167.705 1104.72 169.407 1104.34 170.977C1102.64 170.765 1100.82 170.637 1098.94 170.601V165.939ZM1098.94 164.062V159.309C1100.81 159.284 1102.64 159.168 1104.35 158.967C1104.74 160.555 1104.96 162.276 1105.02 164.062H1098.94ZM1098.94 151.009H1098.94C1100.36 151.408 1101.71 152.71 1102.81 154.774C1103.2 155.501 1103.53 156.294 1103.82 157.14C1102.28 157.309 1100.63 157.409 1098.94 157.432V151.009ZM1098.94 178.882V172.479C1100.63 172.512 1102.27 172.621 1103.81 172.801C1103.52 173.628 1103.19 174.404 1102.81 175.117C1101.71 177.181 1100.36 178.483 1098.94 178.882ZM1107.99 174.987C1106.55 176.427 1104.85 177.518 1103 178.216C1103.53 177.582 1104.02 176.841 1104.47 175.997C1104.94 175.101 1105.35 174.117 1105.7 173.066C1106.91 173.267 1108.04 173.515 1109.04 173.807C1108.71 174.216 1108.36 174.61 1107.99 174.987ZM1110.16 172.188C1109 171.814 1107.66 171.499 1106.21 171.25C1106.6 169.582 1106.83 167.79 1106.9 165.939H1112.09C1111.95 168.168 1111.28 170.298 1110.16 172.188Z" fill="white"/>
<path d="M1064 165C1064 167.209 1065.79 169 1068 169C1070.21 169 1072 167.209 1072 165C1072 162.791 1070.21 161 1068 161C1065.79 161 1064 162.791 1064 165ZM700 165C700 167.209 701.791 169 704 169C706.209 169 708 167.209 708 165C708 162.791 706.209 161 704 161C701.791 161 700 162.791 700 165ZM886 160.5L886.018 161.25L886 160.5ZM794.5 175L794.483 174.25L794.5 175ZM978 170.5L978.017 169.75L978 170.5ZM711.325 167.116C711.733 167.188 712.122 166.916 712.195 166.508C712.267 166.101 711.995 165.711 711.588 165.639L711.325 167.116ZM726.574 168.14C726.165 168.076 725.781 168.356 725.717 168.765C725.653 169.174 725.933 169.558 726.342 169.622L726.574 168.14ZM741.392 171.815C741.802 171.87 742.18 171.582 742.235 171.172C742.29 170.761 742.002 170.384 741.592 170.329L741.392 171.815ZM756.666 172.163C756.254 172.118 755.884 172.416 755.839 172.828C755.795 173.24 756.093 173.61 756.505 173.654L756.666 172.163ZM771.672 175.035C772.085 175.065 772.444 174.754 772.474 174.341C772.503 173.928 772.193 173.568 771.78 173.539L771.672 175.035ZM786.922 174.257C786.508 174.249 786.166 174.579 786.158 174.993C786.151 175.407 786.48 175.749 786.894 175.757L786.922 174.257ZM802.292 175.383C802.705 175.353 803.016 174.994 802.986 174.581C802.956 174.167 802.597 173.857 802.184 173.887L802.292 175.383ZM817.465 172.018C817.057 172.087 816.782 172.475 816.852 172.883C816.921 173.292 817.309 173.566 817.717 173.497L817.465 172.018ZM832.908 170.337C833.311 170.241 833.561 169.837 833.465 169.434C833.37 169.031 832.965 168.782 832.562 168.877L832.908 170.337ZM847.597 165.214C847.194 165.31 846.945 165.714 847.041 166.117C847.137 166.52 847.541 166.77 847.944 166.674L847.597 165.214ZM863.04 163.52C863.448 163.45 863.722 163.062 863.652 162.654C863.582 162.246 863.194 161.972 862.786 162.042L863.04 163.52ZM878.207 160.132C877.794 160.163 877.484 160.523 877.515 160.936C877.545 161.349 877.905 161.659 878.318 161.628L878.207 160.132ZM893.72 161.226C894.134 161.233 894.476 160.904 894.483 160.489C894.491 160.075 894.161 159.733 893.747 159.726L893.72 161.226ZM909.223 160.681C908.811 160.638 908.443 160.938 908.4 161.35C908.357 161.762 908.656 162.13 909.068 162.173L909.223 160.681ZM924.318 164.287C924.727 164.355 925.113 164.079 925.181 163.67C925.249 163.262 924.973 162.875 924.565 162.807L924.318 164.287ZM939.784 165.502C939.376 165.43 938.987 165.702 938.915 166.11C938.842 166.517 939.114 166.907 939.522 166.979L939.784 165.502ZM954.805 169.411C955.216 169.465 955.593 169.177 955.648 168.766C955.702 168.356 955.414 167.979 955.003 167.924L954.805 169.411ZM970.319 169.429C969.906 169.404 969.55 169.719 969.525 170.132C969.5 170.546 969.814 170.901 970.228 170.927L970.319 169.429ZM985.514 171.317C985.928 171.316 986.263 170.979 986.261 170.565C986.26 170.151 985.923 169.816 985.509 169.817L985.514 171.317ZM1000.52 169.495C1000.11 169.511 999.783 169.859 999.798 170.273C999.814 170.686 1000.16 171.01 1000.58 170.994L1000.52 169.495ZM1015.62 170.26C1016.03 170.235 1016.35 169.88 1016.32 169.467C1016.3 169.053 1015.94 168.738 1015.53 168.763L1015.62 170.26ZM1030.52 167.742C1030.11 167.774 1029.8 168.134 1029.83 168.547C1029.86 168.96 1030.23 169.269 1030.64 169.238L1030.52 167.742ZM1045.63 167.992C1046.04 167.955 1046.35 167.591 1046.31 167.178C1046.27 166.765 1045.91 166.461 1045.5 166.498L1045.63 167.992ZM1060.46 165.056C1060.05 165.098 1059.75 165.467 1059.8 165.879C1059.84 166.291 1060.21 166.59 1060.62 166.548L1060.46 165.056ZM704 165C703.855 165.736 703.855 165.736 703.855 165.736C703.855 165.736 703.856 165.736 703.856 165.736C703.856 165.736 703.856 165.736 703.856 165.736C703.856 165.736 703.857 165.736 703.858 165.736C703.859 165.737 703.861 165.737 703.864 165.738C703.869 165.739 703.878 165.74 703.888 165.742C703.91 165.747 703.942 165.753 703.985 165.761C704.07 165.778 704.197 165.802 704.364 165.834C704.697 165.899 705.191 165.993 705.831 166.113C707.11 166.353 708.977 166.698 711.325 167.116L711.588 165.639C709.245 165.222 707.383 164.878 706.107 164.639C705.47 164.519 704.979 164.425 704.647 164.361C704.481 164.33 704.355 164.305 704.271 164.289C704.229 164.281 704.197 164.274 704.176 164.27C704.165 164.268 704.158 164.267 704.152 164.266C704.15 164.265 704.148 164.265 704.146 164.264C704.146 164.264 704.145 164.264 704.145 164.264C704.145 164.264 704.145 164.264 704.145 164.264C704.145 164.264 704.145 164.264 704.145 164.264C704.145 164.264 704.145 164.264 704 165ZM726.342 169.622C730.937 170.341 736.024 171.093 741.392 171.815L741.592 170.329C736.236 169.608 731.16 168.858 726.574 168.14L726.342 169.622ZM756.505 173.654C761.536 174.197 766.64 174.671 771.672 175.035L771.78 173.539C766.768 173.177 761.682 172.704 756.666 172.163L756.505 173.654ZM786.894 175.757C789.51 175.805 792.059 175.805 794.517 175.75L794.483 174.25C792.048 174.305 789.519 174.305 786.922 174.257L786.894 175.757ZM794.517 175.75C797.197 175.69 799.784 175.564 802.292 175.383L802.184 173.887C799.7 174.066 797.138 174.191 794.483 174.25L794.517 175.75ZM817.717 173.497C823.003 172.596 828.007 171.499 832.908 170.337L832.562 168.877C827.677 170.035 822.707 171.124 817.465 172.018L817.717 173.497ZM847.944 166.674C852.829 165.513 857.798 164.42 863.04 163.52L862.786 162.042C857.501 162.949 852.498 164.05 847.597 165.214L847.944 166.674ZM878.318 161.628C880.802 161.444 883.364 161.315 886.018 161.25L885.982 159.75C883.302 159.816 880.715 159.946 878.207 160.132L878.318 161.628ZM886.018 161.25C888.67 161.185 891.233 161.18 893.72 161.226L893.747 159.726C891.239 159.68 888.655 159.685 885.982 159.75L886.018 161.25ZM909.068 162.173C914.355 162.723 919.379 163.463 924.318 164.287L924.565 162.807C919.607 161.981 914.551 161.235 909.223 160.681L909.068 162.173ZM939.522 166.979C944.46 167.855 949.497 168.702 954.805 169.411L955.003 167.924C949.727 167.219 944.714 166.377 939.784 165.502L939.522 166.979ZM970.228 170.927C972.732 171.079 975.313 171.19 977.983 171.25L978.017 169.75C975.367 169.691 972.805 169.581 970.319 169.429L970.228 170.927ZM977.983 171.25C980.41 171.305 982.928 171.326 985.514 171.317L985.509 169.817C982.934 169.826 980.429 169.805 978.017 169.75L977.983 171.25ZM1000.58 170.994C1005.56 170.81 1010.62 170.556 1015.62 170.26L1015.53 168.763C1010.54 169.058 1005.49 169.311 1000.52 169.495L1000.58 170.994ZM1030.64 169.238C1035.98 168.831 1041.05 168.404 1045.63 167.992L1045.5 166.498C1040.92 166.909 1035.86 167.336 1030.52 167.742L1030.64 169.238ZM1060.62 166.548C1062.97 166.306 1064.83 166.105 1066.11 165.965C1066.75 165.895 1067.24 165.84 1067.58 165.803C1067.74 165.784 1067.87 165.769 1067.96 165.76C1068 165.755 1068.03 165.751 1068.05 165.749C1068.06 165.748 1068.07 165.747 1068.08 165.746C1068.08 165.746 1068.08 165.745 1068.08 165.745C1068.08 165.745 1068.08 165.745 1068.08 165.745C1068.09 165.745 1068.09 165.745 1068.09 165.745C1068.09 165.745 1068.09 165.745 1068.09 165.745C1068.09 165.745 1068.09 165.745 1068 165C1067.91 164.255 1067.91 164.255 1067.91 164.255C1067.91 164.255 1067.91 164.255 1067.91 164.255C1067.91 164.255 1067.91 164.255 1067.91 164.255C1067.91 164.255 1067.91 164.255 1067.91 164.255C1067.91 164.255 1067.91 164.255 1067.91 164.256C1067.9 164.256 1067.89 164.257 1067.88 164.259C1067.86 164.261 1067.83 164.265 1067.79 164.269C1067.7 164.279 1067.58 164.293 1067.41 164.312C1067.08 164.349 1066.59 164.404 1065.95 164.474C1064.67 164.614 1062.81 164.814 1060.46 165.056L1060.62 166.548Z" fill="#6060FE"/>
<rect width="90" height="90" rx="45" transform="matrix(-1 0 0 1 220 0)" fill="#6060FE" fill-opacity="0.2"/>
<circle cx="38" cy="38" r="37.75" transform="matrix(-1 0 0 1 213 7)" fill="white" fill-opacity="0.2" stroke="white" stroke-width="0.5"/>
<rect width="64" height="64" rx="32" transform="matrix(-1 0 0 1 207 13)" fill="#6060FE"/>
<path d="M163.686 33.6863C166.708 30.6643 170.726 29 175 29C179.274 29 183.292 30.6643 186.314 33.6863C189.336 36.7083 191 40.7263 191 45C191 49.2738 189.336 53.2917 186.314 56.3137C183.292 59.3358 179.274 61 175 61C170.726 61 166.708 59.3357 163.686 56.3137C160.664 53.2917 159 49.2737 159 45C159 40.7262 160.664 36.7083 163.686 33.6863ZM184.986 35.0135C183.58 33.6066 181.928 32.5334 180.128 31.833C180.607 32.4316 181.056 33.1197 181.467 33.8936C181.945 34.7923 182.357 35.7794 182.7 36.8337C183.889 36.6364 184.99 36.3938 185.974 36.109C185.666 35.7299 185.337 35.3639 184.986 35.0135ZM187.111 37.7241C185.96 38.0926 184.643 38.4035 183.207 38.6496C183.607 40.3475 183.842 42.1746 183.898 44.0616H189.091C188.944 41.797 188.264 39.6358 187.111 37.7241ZM187.213 52.1024C188.304 50.2337 188.948 48.1349 189.092 45.9385H183.895C183.834 47.7715 183.603 49.5467 183.216 51.2001C184.682 51.4377 186.032 51.7407 187.213 52.1024ZM184.986 54.9866C185.385 54.5877 185.757 54.169 186.101 53.7331C185.081 53.4502 183.94 53.2107 182.713 53.0185C182.367 54.0875 181.95 55.0876 181.467 55.9974C181.019 56.8407 180.526 57.5817 179.998 58.2165C181.848 57.5176 183.546 56.4272 184.986 54.9866ZM175.938 58.8822C177.364 58.4829 178.712 57.1812 179.809 55.1167C180.193 54.3947 180.53 53.607 180.819 52.7675C179.273 52.5974 177.629 52.4968 175.938 52.4732V58.8822ZM175.938 50.5961C177.813 50.6217 179.64 50.7394 181.35 50.9403C181.728 49.3802 181.955 47.6917 182.017 45.9385H175.938V50.5961H175.938ZM175.938 44.0615H182.021C181.964 42.2594 181.733 40.5237 181.344 38.924C179.644 39.1365 177.821 39.2657 175.938 39.3027V44.0615ZM175.938 37.4255C177.635 37.3913 179.276 37.2807 180.811 37.1002C180.524 36.2695 180.19 35.4897 179.809 34.7743C178.713 32.7098 177.364 31.408 175.938 31.0087V37.4255ZM162.83 37.8238C161.713 39.7108 161.053 41.8362 160.908 44.0615H166.101C166.157 42.1963 166.388 40.3897 166.779 38.7086C165.334 38.4751 164.001 38.178 162.83 37.8238ZM165.014 35.0135C164.637 35.3903 164.285 35.7853 163.956 36.1954C164.961 36.4697 166.08 36.7025 167.282 36.8899C167.628 35.8144 168.047 34.8083 168.533 33.8936C168.944 33.1197 169.393 32.4316 169.872 31.833C168.072 32.5334 166.42 33.6066 165.014 35.0135ZM174.061 45.9385H167.983C168.046 47.7053 168.276 49.4067 168.658 50.9768C170.358 50.7655 172.18 50.6374 174.061 50.6014V45.9385ZM174.061 44.0615V39.309C172.186 39.2843 170.358 39.1676 168.645 38.9675C168.263 40.5551 168.036 42.2757 167.979 44.0615H174.061ZM174.062 31.0087H174.062C172.636 31.408 171.288 32.7098 170.191 34.7743C169.804 35.501 169.465 36.2941 169.176 37.1398C170.723 37.3093 172.37 37.4091 174.062 37.4319V31.0087ZM174.061 58.8822V52.4786C172.366 52.5119 170.727 52.6215 169.193 52.8009C169.479 53.6279 169.812 54.4042 170.19 55.1167C171.287 57.1812 172.636 58.4829 174.061 58.8822ZM165.014 54.9866C166.454 56.4272 168.152 57.5176 170.002 58.2164C169.474 57.5817 168.981 56.8407 168.533 55.9974C168.057 55.1011 167.646 54.1169 167.303 53.0658C166.086 53.2666 164.961 53.5149 163.958 53.807C164.286 54.2161 164.637 54.6104 165.014 54.9866ZM162.837 52.1881C164.002 51.8137 165.337 51.4986 166.795 51.25C166.401 49.5825 166.167 47.79 166.105 45.9385H160.908C161.054 48.1684 161.716 50.2981 162.837 52.1881Z" fill="white"/>
<path d="M496.5 131.5C496.5 133.709 494.709 135.5 492.5 135.5C490.291 135.5 488.5 133.709 488.5 131.5C488.5 129.291 490.291 127.5 492.5 127.5C494.709 127.5 496.5 129.291 496.5 131.5ZM420 75L419.722 75.6965L420 75ZM323.5 75L323.794 74.3098L323.5 75ZM281 45L281.266 44.2988L281 45ZM211 45C211 47.2091 209.209 49 207 49C204.791 49 203 47.2091 203 45C203 42.7909 204.791 41 207 41C209.209 41 211 42.7909 211 45ZM486.381 126.853C486.075 126.573 486.054 126.098 486.334 125.793C486.614 125.488 487.088 125.467 487.394 125.746L486.381 126.853ZM475.928 115.443C476.239 115.717 476.268 116.191 475.994 116.501C475.72 116.812 475.247 116.842 474.936 116.568L475.928 115.443ZM463.319 106.533C463.003 106.265 462.963 105.792 463.23 105.476C463.497 105.159 463.97 105.119 464.287 105.387L463.319 106.533ZM452.39 95.6099C452.714 95.8679 452.767 96.3397 452.509 96.6638C452.251 96.9878 451.779 97.0413 451.455 96.7833L452.39 95.6099ZM439.253 87.4814C438.917 87.2389 438.842 86.77 439.084 86.4343C439.327 86.0985 439.796 86.023 440.132 86.2655L439.253 87.4814ZM427.246 77.777C427.605 77.9836 427.729 78.4421 427.523 78.8011C427.316 79.1602 426.858 79.2838 426.498 79.0772L427.246 77.777ZM412.011 73.2505C411.608 73.1551 411.359 72.751 411.454 72.3479C411.549 71.9448 411.954 71.6954 412.357 71.7908L412.011 73.2505ZM395.878 70.376C396.291 70.3554 396.643 70.6741 396.664 71.0878C396.684 71.5015 396.366 71.8536 395.952 71.8741L395.878 70.376ZM379.866 74.1897C379.461 74.2759 379.063 74.0174 378.977 73.6122C378.89 73.2071 379.149 72.8088 379.554 72.7225L379.866 74.1897ZM363.568 76.3317C363.973 76.2466 364.371 76.5063 364.456 76.9117C364.541 77.3171 364.281 77.7146 363.876 77.7997L363.568 76.3317ZM347.533 80.0399C347.119 80.056 346.771 79.7335 346.755 79.3196C346.738 78.9057 347.061 78.5571 347.475 78.541L347.533 80.0399ZM331.45 76.9167C331.851 77.02 332.092 77.4289 331.989 77.8301C331.885 78.2312 331.477 78.4726 331.075 78.3693L331.45 76.9167ZM317.27 72.7059C316.912 72.4965 316.792 72.037 317.002 71.6796C317.211 71.3223 317.67 71.2023 318.028 71.4117L317.27 72.7059ZM307.689 63.665C307.997 63.9419 308.022 64.4161 307.745 64.7241C307.468 65.0322 306.994 65.0575 306.686 64.7806L307.689 63.665ZM297.092 55.8812C296.781 55.6078 296.75 55.134 297.024 54.8228C297.297 54.5116 297.771 54.4809 298.082 54.7542L297.092 55.8812ZM287.312 47.0654C287.677 47.2628 287.812 47.7181 287.614 48.0822C287.417 48.4463 286.962 48.5815 286.597 48.384L287.312 47.0654ZM271.87 43.1718C271.464 43.0875 271.204 42.6904 271.288 42.2848C271.373 41.8793 271.77 41.6189 272.175 41.7032L271.87 43.1718ZM253.461 39.7372C253.875 39.7472 254.202 40.091 254.192 40.5051C254.182 40.9192 253.838 41.2468 253.424 41.2368L253.461 39.7372ZM234.812 41.8302C234.399 41.8635 234.038 41.5558 234.004 41.1429C233.971 40.7301 234.279 40.3684 234.692 40.335L234.812 41.8302ZM216.064 42.5866C216.473 42.5212 216.858 42.7998 216.923 43.2088C216.989 43.6179 216.71 44.0024 216.301 44.0678L216.064 42.5866ZM492.5 131.5C491.985 132.045 491.985 132.045 491.985 132.045C491.985 132.045 491.985 132.045 491.985 132.045C491.985 132.045 491.985 132.045 491.985 132.045C491.984 132.045 491.984 132.044 491.984 132.044C491.983 132.043 491.981 132.042 491.979 132.04C491.975 132.036 491.969 132.03 491.961 132.023C491.945 132.008 491.921 131.985 491.889 131.955C491.825 131.895 491.73 131.805 491.605 131.688C491.354 131.453 490.983 131.105 490.502 130.657C489.54 129.761 488.139 128.463 486.381 126.853L487.394 125.746C489.155 127.36 490.56 128.661 491.525 129.56C492.007 130.009 492.379 130.357 492.631 130.594C492.757 130.712 492.853 130.802 492.917 130.863C492.95 130.893 492.974 130.916 492.99 130.931C492.998 130.939 493.005 130.945 493.009 130.949C493.011 130.951 493.012 130.952 493.013 130.953C493.014 130.954 493.014 130.954 493.015 130.954C493.015 130.954 493.015 130.955 493.015 130.955C493.015 130.955 493.015 130.955 493.015 130.955C493.015 130.955 493.015 130.955 492.5 131.5ZM474.936 116.568C471.373 113.426 467.438 110.012 463.319 106.533L464.287 105.387C468.416 108.874 472.359 112.295 475.928 115.443L474.936 116.568ZM451.455 96.7833C447.34 93.5058 443.217 90.3454 439.253 87.4814L440.132 86.2655C444.119 89.1465 448.261 92.3218 452.39 95.6099L451.455 96.7833ZM426.498 79.0772C424.019 77.651 421.74 76.5029 419.722 75.6965L420.278 74.3035C422.384 75.1448 424.729 76.3291 427.246 77.777L426.498 79.0772ZM419.722 75.6965C417.106 74.6513 414.539 73.8485 412.011 73.2505L412.357 71.7908C414.956 72.4057 417.594 73.2309 420.278 74.3035L419.722 75.6965ZM395.952 71.8741C390.508 72.1449 385.178 73.0591 379.866 74.1897L379.554 72.7225C384.9 71.5847 390.318 70.6525 395.878 70.376L395.952 71.8741ZM363.876 77.7997C358.515 78.9246 353.09 79.8235 347.533 80.0399L347.475 78.541C352.912 78.3293 358.244 77.4488 363.568 76.3317L363.876 77.7997ZM331.075 78.3693C328.492 77.704 325.871 76.8234 323.206 75.6902L323.794 74.3098C326.389 75.4138 328.939 76.2701 331.45 76.9167L331.075 78.3693ZM323.206 75.6902C321.061 74.778 319.096 73.776 317.27 72.7059L318.028 71.4117C319.801 72.4507 321.709 73.4235 323.794 74.3098L323.206 75.6902ZM306.686 64.7806C305.037 63.2985 303.453 61.7885 301.878 60.2954C300.3 58.7996 298.729 57.3192 297.092 55.8812L298.082 54.7542C299.743 56.2131 301.332 57.7112 302.91 59.2068C304.49 60.705 306.058 62.1992 307.689 63.665L306.686 64.7806ZM286.597 48.384C284.796 47.4074 282.856 46.5062 280.734 45.7012L281.266 44.2988C283.452 45.1281 285.454 46.0575 287.312 47.0654L286.597 48.384ZM280.734 45.7012C277.975 44.6543 274.996 43.8218 271.87 43.1718L272.175 41.7032C275.364 42.3661 278.42 43.219 281.266 44.2988L280.734 45.7012ZM253.424 41.2368C247.068 41.0833 240.703 41.355 234.812 41.8302L234.692 40.335C240.621 39.8568 247.04 39.5822 253.461 39.7372L253.424 41.2368ZM216.301 44.0678C213.477 44.519 211.19 44.9358 209.609 45.2395C208.818 45.3914 208.205 45.515 207.789 45.6005C207.582 45.6432 207.424 45.6765 207.318 45.6989C207.265 45.7101 207.225 45.7187 207.199 45.7244C207.185 45.7272 207.176 45.7293 207.169 45.7308C207.166 45.7315 207.163 45.732 207.162 45.7323C207.161 45.7325 207.161 45.7326 207.16 45.7327C207.16 45.7327 207.16 45.7327 207.16 45.7328C207.16 45.7328 207.16 45.7328 207.16 45.7328C207.16 45.7328 207.16 45.7328 207 45C206.84 44.2672 206.84 44.2672 206.84 44.2672C206.84 44.2672 206.84 44.2672 206.84 44.2672C206.841 44.2671 206.841 44.2671 206.841 44.267C206.842 44.2669 206.842 44.2668 206.843 44.2666C206.845 44.2662 206.848 44.2656 206.851 44.2648C206.859 44.2632 206.869 44.2609 206.883 44.2579C206.911 44.252 206.952 44.2431 207.007 44.2316C207.115 44.2085 207.276 44.1747 207.487 44.1313C207.908 44.0446 208.528 43.9197 209.326 43.7665C210.92 43.4601 213.224 43.0405 216.064 42.5866L216.301 44.0678Z" fill="#6060FE"/>
<rect x="220" y="330" width="90" height="90" rx="45" transform="rotate(180 220 330)" fill="#6060FE" fill-opacity="0.2"/>
<circle cx="175" cy="285" r="37.75" transform="rotate(180 175 285)" fill="white" fill-opacity="0.2" stroke="white" stroke-width="0.5"/>
<rect x="207" y="317" width="64" height="64" rx="32" transform="rotate(180 207 317)" fill="#6060FE"/>
<path d="M163.686 296.314C166.708 299.336 170.726 301 175 301C179.274 301 183.292 299.336 186.314 296.314C189.336 293.292 191 289.274 191 285C191 280.726 189.336 276.708 186.314 273.686C183.292 270.664 179.274 269 175 269C170.726 269 166.708 270.664 163.686 273.686C160.664 276.708 159 280.726 159 285C159 289.274 160.664 293.292 163.686 296.314ZM184.986 294.986C183.58 296.393 181.928 297.467 180.128 298.167C180.607 297.568 181.056 296.88 181.467 296.106C181.945 295.208 182.357 294.221 182.7 293.166C183.889 293.364 184.99 293.606 185.974 293.891C185.666 294.27 185.337 294.636 184.986 294.986ZM187.111 292.276C185.96 291.907 184.643 291.597 183.207 291.35C183.607 289.652 183.842 287.825 183.898 285.938H189.091C188.944 288.203 188.264 290.364 187.111 292.276ZM187.213 277.898C188.304 279.766 188.948 281.865 189.092 284.062H183.895C183.834 282.228 183.603 280.453 183.216 278.8C184.682 278.562 186.032 278.259 187.213 277.898ZM184.986 275.013C185.385 275.412 185.757 275.831 186.101 276.267C185.081 276.55 183.94 276.789 182.713 276.981C182.367 275.913 181.95 274.912 181.467 274.003C181.019 273.159 180.526 272.418 179.998 271.784C181.848 272.482 183.546 273.573 184.986 275.013ZM175.938 271.118C177.364 271.517 178.712 272.819 179.809 274.883C180.193 275.605 180.53 276.393 180.819 277.233C179.273 277.403 177.629 277.503 175.938 277.527V271.118ZM175.938 279.404C177.813 279.378 179.64 279.261 181.35 279.06C181.728 280.62 181.955 282.308 182.017 284.061H175.938V279.404H175.938ZM175.938 285.938H182.021C181.964 287.741 181.733 289.476 181.344 291.076C179.644 290.864 177.821 290.734 175.938 290.697V285.938ZM175.938 292.574C177.635 292.609 179.276 292.719 180.811 292.9C180.524 293.731 180.19 294.51 179.809 295.226C178.713 297.29 177.364 298.592 175.938 298.991V292.574ZM162.83 292.176C161.713 290.289 161.053 288.164 160.908 285.938H166.101C166.157 287.804 166.388 289.61 166.779 291.291C165.334 291.525 164.001 291.822 162.83 292.176ZM165.014 294.986C164.637 294.61 164.285 294.215 163.956 293.805C164.961 293.53 166.08 293.297 167.282 293.11C167.628 294.186 168.047 295.192 168.533 296.106C168.944 296.88 169.393 297.568 169.872 298.167C168.072 297.467 166.42 296.393 165.014 294.986ZM174.061 284.061H167.983C168.046 282.295 168.276 280.593 168.658 279.023C170.358 279.235 172.18 279.363 174.061 279.399V284.061ZM174.061 285.938V290.691C172.186 290.716 170.358 290.832 168.645 291.033C168.263 289.445 168.036 287.724 167.979 285.938H174.061ZM174.062 298.991H174.062C172.636 298.592 171.288 297.29 170.191 295.226C169.804 294.499 169.465 293.706 169.176 292.86C170.723 292.691 172.37 292.591 174.062 292.568V298.991ZM174.061 271.118V277.521C172.366 277.488 170.727 277.379 169.193 277.199C169.479 276.372 169.812 275.596 170.19 274.883C171.287 272.819 172.636 271.517 174.061 271.118ZM165.014 275.013C166.454 273.573 168.152 272.482 170.002 271.784C169.474 272.418 168.981 273.159 168.533 274.003C168.057 274.899 167.646 275.883 167.303 276.934C166.086 276.733 164.961 276.485 163.958 276.193C164.286 275.784 164.637 275.39 165.014 275.013ZM162.837 277.812C164.002 278.186 165.337 278.501 166.795 278.75C166.401 280.418 166.167 282.21 166.105 284.061H160.908C161.054 281.832 161.716 279.702 162.837 277.812Z" fill="white"/>
<path d="M455 238.5C455 236.291 453.209 234.5 451 234.5C448.791 234.5 447 236.291 447 238.5C447 240.709 448.791 242.5 451 242.5C453.209 242.5 455 240.709 455 238.5ZM420 255L419.722 254.304L420 255ZM323.5 255L323.794 255.69L323.5 255ZM281 285L281.266 285.701L281 285ZM211 285C211 282.791 209.209 281 207 281C204.791 281 203 282.791 203 285C203 287.209 204.791 289 207 289C209.209 289 211 287.209 211 285ZM443.346 242.82C442.991 243.035 442.878 243.496 443.092 243.85C443.306 244.205 443.768 244.318 444.122 244.104L443.346 242.82ZM428.421 252.242C428.798 252.072 428.967 251.628 428.796 251.25C428.626 250.873 428.182 250.704 427.804 250.875L428.421 252.242ZM412.012 256.75C411.608 256.845 411.359 257.249 411.454 257.652C411.55 258.055 411.954 258.305 412.357 258.209L412.012 256.75ZM395.878 259.624C396.292 259.645 396.644 259.326 396.664 258.912C396.685 258.498 396.366 258.146 395.952 258.126L395.878 259.624ZM379.867 255.81C379.461 255.724 379.063 255.983 378.977 256.388C378.891 256.793 379.149 257.191 379.554 257.277L379.867 255.81ZM363.568 253.668C363.973 253.753 364.371 253.494 364.456 253.088C364.541 252.683 364.281 252.285 363.876 252.2L363.568 253.668ZM347.533 249.96C347.119 249.944 346.771 250.267 346.755 250.68C346.739 251.094 347.061 251.443 347.475 251.459L347.533 249.96ZM331.45 253.083C331.851 252.98 332.092 252.571 331.989 252.17C331.886 251.769 331.477 251.527 331.076 251.631L331.45 253.083ZM317.27 257.294C316.912 257.504 316.792 257.963 317.002 258.32C317.211 258.678 317.671 258.798 318.028 258.588L317.27 257.294ZM307.689 266.335C307.997 266.058 308.022 265.584 307.746 265.276C307.469 264.968 306.994 264.942 306.686 265.219L307.689 266.335ZM297.092 274.119C296.781 274.392 296.75 274.866 297.024 275.177C297.297 275.488 297.771 275.519 298.082 275.246L297.092 274.119ZM287.313 282.935C287.677 282.737 287.812 282.282 287.615 281.918C287.417 281.554 286.962 281.419 286.598 281.616L287.313 282.935ZM271.87 286.828C271.465 286.913 271.204 287.31 271.289 287.715C271.373 288.121 271.77 288.381 272.176 288.297L271.87 286.828ZM253.461 290.263C253.875 290.253 254.203 289.909 254.193 289.495C254.183 289.081 253.839 288.753 253.425 288.763L253.461 290.263ZM234.812 288.17C234.4 288.137 234.038 288.444 234.005 288.857C233.971 289.27 234.279 289.632 234.692 289.665L234.812 288.17ZM216.065 287.413C216.474 287.479 216.858 287.2 216.924 286.791C216.989 286.382 216.71 285.998 216.301 285.932L216.065 287.413ZM451 238.5C450.512 237.93 450.512 237.93 450.513 237.93C450.513 237.93 450.513 237.93 450.513 237.93C450.513 237.93 450.513 237.93 450.513 237.93C450.513 237.93 450.512 237.93 450.512 237.93C450.512 237.931 450.51 237.932 450.509 237.933C450.505 237.936 450.499 237.941 450.492 237.948C450.476 237.961 450.451 237.982 450.417 238.009C450.35 238.065 450.246 238.149 450.105 238.26C449.823 238.482 449.392 238.812 448.806 239.237C447.632 240.087 445.832 241.316 443.346 242.82L444.122 244.104C446.644 242.578 448.478 241.326 449.685 240.452C450.289 240.015 450.735 239.673 451.033 239.438C451.182 239.321 451.294 239.23 451.369 239.168C451.407 239.137 451.436 239.114 451.455 239.097C451.465 239.089 451.473 239.082 451.478 239.078C451.481 239.076 451.483 239.074 451.485 239.072C451.485 239.072 451.486 239.071 451.487 239.071C451.487 239.071 451.487 239.07 451.487 239.07C451.487 239.07 451.487 239.07 451.487 239.07C451.488 239.07 451.488 239.07 451 238.5ZM427.804 250.875C425.335 251.988 422.644 253.136 419.722 254.304L420.279 255.696C423.22 254.521 425.931 253.364 428.421 252.242L427.804 250.875ZM419.722 254.304C417.107 255.349 414.539 256.152 412.012 256.75L412.357 258.209C414.956 257.594 417.594 256.769 420.279 255.696L419.722 254.304ZM395.952 258.126C390.508 257.855 385.178 256.941 379.867 255.81L379.554 257.277C384.9 258.415 390.318 259.348 395.878 259.624L395.952 258.126ZM363.876 252.2C358.515 251.075 353.091 250.176 347.533 249.96L347.475 251.459C352.912 251.671 358.244 252.551 363.568 253.668L363.876 252.2ZM331.076 251.631C328.492 252.296 325.872 253.177 323.207 254.31L323.794 255.69C326.39 254.586 328.939 253.73 331.45 253.083L331.076 251.631ZM323.207 254.31C321.062 255.222 319.096 256.224 317.27 257.294L318.028 258.588C319.801 257.549 321.71 256.576 323.794 255.69L323.207 254.31ZM306.686 265.219C305.037 266.702 303.453 268.211 301.878 269.705C300.3 271.2 298.729 272.681 297.092 274.119L298.082 275.246C299.743 273.787 301.332 272.289 302.91 270.793C304.491 269.295 306.058 267.801 307.689 266.335L306.686 265.219ZM286.598 281.616C284.797 282.593 282.856 283.494 280.734 284.299L281.266 285.701C283.452 284.872 285.454 283.943 287.313 282.935L286.598 281.616ZM280.734 284.299C277.975 285.346 274.996 286.178 271.87 286.828L272.176 288.297C275.364 287.634 278.42 286.781 281.266 285.701L280.734 284.299ZM253.425 288.763C247.068 288.917 240.703 288.645 234.812 288.17L234.692 289.665C240.621 290.143 247.04 290.418 253.461 290.263L253.425 288.763ZM216.301 285.932C213.478 285.481 211.19 285.064 209.609 284.76C208.819 284.609 208.205 284.485 207.79 284.399C207.582 284.357 207.424 284.324 207.318 284.301C207.265 284.29 207.225 284.281 207.199 284.276C207.186 284.273 207.176 284.271 207.169 284.269C207.166 284.269 207.164 284.268 207.162 284.268C207.161 284.268 207.161 284.267 207.161 284.267C207.16 284.267 207.16 284.267 207.16 284.267C207.16 284.267 207.16 284.267 207.16 284.267C207.16 284.267 207.16 284.267 207 285C206.84 285.733 206.84 285.733 206.84 285.733C206.841 285.733 206.841 285.733 206.841 285.733C206.841 285.733 206.841 285.733 206.841 285.733C206.842 285.733 206.843 285.733 206.843 285.733C206.845 285.734 206.848 285.734 206.852 285.735C206.859 285.737 206.869 285.739 206.883 285.742C206.911 285.748 206.952 285.757 207.007 285.768C207.116 285.791 207.277 285.825 207.487 285.869C207.909 285.955 208.529 286.08 209.326 286.234C210.92 286.54 213.224 286.959 216.065 287.413L216.301 285.932Z" fill="#6060FE"/>
<rect width="90" height="90" rx="45" transform="matrix(-1 0 0 1 90 120)" fill="#6060FE" fill-opacity="0.2"/>
<circle cx="38" cy="38" r="37.75" transform="matrix(-1 0 0 1 83 127)" fill="white" fill-opacity="0.2" stroke="white" stroke-width="0.5"/>
<rect width="64" height="64" rx="32" transform="matrix(-1 0 0 1 77 133)" fill="#6060FE"/>
<path d="M33.6863 153.686C36.7083 150.664 40.7262 149 45 149C49.2737 149 53.2917 150.664 56.3137 153.686C59.3357 156.708 61 160.726 61 165C61 169.274 59.3357 173.292 56.3137 176.314C53.2917 179.336 49.2737 181 45 181C40.7261 181 36.7083 179.336 33.6862 176.314C30.6643 173.292 28.9999 169.274 28.9999 165C28.9999 160.726 30.6642 156.708 33.6863 153.686ZM54.9865 155.014C53.5795 153.607 51.9279 152.533 50.1276 151.833C50.6071 152.432 51.0558 153.12 51.467 153.894C51.9445 154.792 52.3566 155.779 52.6998 156.834C53.8887 156.636 54.9902 156.394 55.9744 156.109C55.6659 155.73 55.3369 155.364 54.9865 155.014ZM57.1107 157.724C55.9596 158.093 54.6432 158.403 53.2069 158.65C53.6069 160.348 53.8423 162.175 53.8985 164.062H59.0915C58.944 161.797 58.2639 159.636 57.1107 157.724ZM57.2129 172.102C58.3038 170.234 58.9484 168.135 59.0916 165.938H53.8949C53.8335 167.772 53.6028 169.547 53.2163 171.2C54.6822 171.438 56.0316 171.741 57.2129 172.102ZM54.9865 174.987C55.3852 174.588 55.7566 174.169 56.1009 173.733C55.0807 173.45 53.9402 173.211 52.7125 173.019C52.3669 174.087 51.9504 175.088 51.467 175.997C51.0189 176.841 50.5262 177.582 49.9977 178.216C51.8483 177.518 53.5457 176.427 54.9865 174.987ZM45.9385 178.882C47.364 178.483 48.7125 177.181 49.8095 175.117C50.1932 174.395 50.5302 173.607 50.8189 172.767C49.2732 172.597 47.6285 172.497 45.9385 172.473V178.882ZM45.9385 170.596C47.8127 170.622 49.6395 170.739 51.3504 170.94C51.7277 169.38 51.9548 167.692 52.0171 165.939H45.9384V170.596H45.9385ZM45.9385 164.062H52.0207C51.9637 162.259 51.733 160.524 51.3439 158.924C49.644 159.136 47.821 159.266 45.9385 159.303V164.062ZM45.9385 157.426C47.6351 157.391 49.2762 157.281 50.8109 157.1C50.5239 156.269 50.1895 155.49 49.8095 154.774C48.7125 152.71 47.364 151.408 45.9385 151.009V157.426ZM32.8301 157.824C31.713 159.711 31.0534 161.836 30.9083 164.062H36.1013C36.1569 162.196 36.3878 160.39 36.7794 158.709C35.3336 158.475 34.0009 158.178 32.8301 157.824ZM35.0135 155.014C34.6367 155.39 34.2847 155.785 33.9564 156.195C34.9609 156.47 36.0796 156.703 37.2816 156.89C37.6284 155.814 38.0468 154.808 38.5329 153.894C38.9441 153.12 39.3928 152.432 39.8723 151.833C38.0721 152.533 36.4204 153.607 35.0135 155.014ZM44.0615 165.939H37.9828C38.0455 167.705 38.2756 169.407 38.6584 170.977C40.358 170.765 42.1802 170.637 44.0615 170.601V165.939ZM44.0615 164.062V159.309C42.1861 159.284 40.3579 159.168 38.6455 158.967C38.2626 160.555 38.0357 162.276 37.9793 164.062H44.0615ZM44.0616 151.009H44.0615C42.636 151.408 41.2875 152.71 40.1905 154.774C39.8044 155.501 39.4655 156.294 39.1755 157.14C40.7232 157.309 42.3698 157.409 44.0616 157.432V151.009ZM44.0615 178.882V172.479C42.3665 172.512 40.7266 172.621 39.1925 172.801C39.4787 173.628 39.812 174.404 40.1905 175.117C41.2875 177.181 42.636 178.483 44.0615 178.882ZM35.0135 174.987C36.4542 176.427 38.1516 177.518 40.0023 178.216C39.4738 177.582 38.9811 176.841 38.533 175.997C38.0567 175.101 37.6456 174.117 37.303 173.066C36.0864 173.267 34.9609 173.515 33.9583 173.807C34.2859 174.216 34.6374 174.61 35.0135 174.987ZM32.8371 172.188C34.0018 171.814 35.3371 171.499 36.795 171.25C36.4015 169.582 36.1669 167.79 36.1049 165.939H30.9083C31.0538 168.168 31.7156 170.298 32.8371 172.188Z" fill="white"/>
<path d="M79 165C79 167.209 77.2091 169 75 169C72.7909 169 71 167.209 71 165C71 162.791 72.7909 161 75 161C77.2091 161 79 162.791 79 165ZM442 165.5C442 167.709 440.209 169.5 438 169.5C435.791 169.5 434 167.709 434 165.5C434 163.291 435.791 161.5 438 161.5C440.209 161.5 442 163.291 442 165.5ZM257 160.5L256.982 161.25L257 160.5ZM348.5 175L348.517 174.25L348.5 175ZM165 170.5L164.983 169.75L165 170.5ZM430.752 167.56C430.343 167.631 429.955 167.357 429.885 166.948C429.815 166.54 430.089 166.152 430.497 166.082L430.752 167.56ZM415.672 168.476C416.082 168.414 416.464 168.696 416.526 169.105C416.588 169.515 416.306 169.897 415.896 169.959L415.672 168.476ZM401.007 172.051C400.596 172.104 400.22 171.814 400.167 171.403C400.114 170.992 400.404 170.616 400.814 170.563L401.007 172.051ZM385.907 172.304C386.319 172.261 386.687 172.561 386.73 172.973C386.772 173.385 386.473 173.753 386.061 173.796L385.907 172.304ZM371.065 175.097C370.652 175.125 370.294 174.813 370.265 174.4C370.237 173.986 370.549 173.628 370.962 173.6L371.065 175.097ZM355.993 174.265C356.407 174.258 356.748 174.589 356.755 175.003C356.762 175.417 356.431 175.758 356.017 175.765L355.993 174.265ZM340.708 175.383C340.295 175.353 339.984 174.994 340.014 174.581C340.044 174.167 340.403 173.857 340.816 173.887L340.708 175.383ZM325.535 172.018C325.943 172.087 326.218 172.475 326.148 172.883C326.079 173.292 325.691 173.566 325.283 173.497L325.535 172.018ZM310.092 170.337C309.689 170.241 309.439 169.837 309.535 169.434C309.63 169.031 310.035 168.782 310.438 168.877L310.092 170.337ZM295.403 165.214C295.806 165.31 296.055 165.714 295.959 166.117C295.863 166.52 295.459 166.77 295.056 166.674L295.403 165.214ZM279.96 163.52C279.552 163.45 279.278 163.062 279.348 162.654C279.418 162.246 279.806 161.972 280.214 162.042L279.96 163.52ZM264.793 160.132C265.206 160.163 265.516 160.523 265.485 160.936C265.455 161.349 265.095 161.659 264.682 161.628L264.793 160.132ZM249.28 161.226C248.866 161.233 248.524 160.904 248.517 160.489C248.509 160.075 248.839 159.733 249.253 159.726L249.28 161.226ZM233.777 160.681C234.189 160.638 234.557 160.938 234.6 161.35C234.643 161.762 234.344 162.13 233.932 162.173L233.777 160.681ZM218.682 164.287C218.273 164.355 217.887 164.079 217.819 163.67C217.751 163.262 218.027 162.875 218.435 162.807L218.682 164.287ZM203.216 165.502C203.624 165.43 204.013 165.702 204.085 166.11C204.158 166.517 203.886 166.907 203.478 166.979L203.216 165.502ZM188.195 169.411C187.784 169.465 187.407 169.177 187.352 168.766C187.298 168.356 187.586 167.979 187.997 167.924L188.195 169.411ZM172.681 169.429C173.094 169.404 173.45 169.719 173.475 170.132C173.5 170.546 173.186 170.901 172.772 170.927L172.681 169.429ZM157.486 171.317C157.072 171.316 156.737 170.979 156.739 170.565C156.74 170.151 157.077 169.816 157.491 169.817L157.486 171.317ZM142.48 169.495C142.894 169.511 143.217 169.859 143.202 170.273C143.186 170.686 142.838 171.01 142.424 170.994L142.48 169.495ZM127.383 170.26C126.97 170.235 126.654 169.88 126.679 169.467C126.703 169.053 127.059 168.738 127.472 168.763L127.383 170.26ZM112.475 167.742C112.888 167.774 113.198 168.134 113.166 168.547C113.135 168.96 112.775 169.269 112.362 169.238L112.475 167.742ZM97.3698 167.992C96.9572 167.955 96.6528 167.591 96.6899 167.178C96.727 166.765 97.0915 166.461 97.504 166.498L97.3698 167.992ZM82.5353 165.056C82.9474 165.098 83.2469 165.467 83.2044 165.879C83.1619 166.291 82.7935 166.59 82.3814 166.548L82.5353 165.056ZM438 165.5C438.141 166.237 438.141 166.237 438.141 166.237C438.141 166.237 438.14 166.237 438.14 166.237C438.14 166.237 438.14 166.237 438.14 166.237C438.14 166.237 438.139 166.237 438.138 166.237C438.137 166.237 438.135 166.238 438.132 166.238C438.127 166.239 438.119 166.241 438.108 166.243C438.087 166.247 438.055 166.253 438.013 166.261C437.928 166.277 437.803 166.3 437.638 166.331C437.308 166.393 436.82 166.483 436.187 166.599C434.922 166.829 433.075 167.16 430.752 167.56L430.497 166.082C432.815 165.683 434.657 165.353 435.918 165.123C436.549 165.008 437.035 164.918 437.363 164.857C437.527 164.826 437.651 164.803 437.734 164.787C437.776 164.779 437.807 164.773 437.828 164.769C437.839 164.767 437.847 164.766 437.852 164.765C437.854 164.764 437.856 164.764 437.858 164.764C437.858 164.764 437.859 164.763 437.859 164.763C437.859 164.763 437.859 164.763 437.859 164.763C437.859 164.763 437.859 164.763 437.859 164.763C437.859 164.763 437.859 164.763 438 165.5ZM415.896 169.959C411.352 170.646 406.321 171.363 401.007 172.051L400.814 170.563C406.116 169.877 411.137 169.161 415.672 168.476L415.896 169.959ZM386.061 173.796C381.091 174.309 376.046 174.756 371.065 175.097L370.962 173.6C375.924 173.261 380.952 172.815 385.907 172.304L386.061 173.796ZM356.017 175.765C353.437 175.807 350.918 175.804 348.483 175.75L348.517 174.25C350.93 174.304 353.429 174.307 355.993 174.265L356.017 175.765ZM348.483 175.75C345.803 175.69 343.216 175.564 340.708 175.383L340.816 173.887C343.3 174.066 345.862 174.191 348.517 174.25L348.483 175.75ZM325.283 173.497C319.997 172.596 314.993 171.499 310.092 170.337L310.438 168.877C315.323 170.035 320.293 171.124 325.535 172.018L325.283 173.497ZM295.056 166.674C290.171 165.513 285.202 164.42 279.96 163.52L280.214 162.042C285.499 162.949 290.502 164.05 295.403 165.214L295.056 166.674ZM264.682 161.628C262.198 161.444 259.636 161.315 256.982 161.25L257.018 159.75C259.698 159.816 262.285 159.946 264.793 160.132L264.682 161.628ZM256.982 161.25C254.33 161.185 251.767 161.18 249.28 161.226L249.253 159.726C251.761 159.68 254.345 159.685 257.018 159.75L256.982 161.25ZM233.932 162.173C228.645 162.723 223.621 163.463 218.682 164.287L218.435 162.807C223.393 161.981 228.449 161.235 233.777 160.681L233.932 162.173ZM203.478 166.979C198.54 167.855 193.503 168.702 188.195 169.411L187.997 167.924C193.273 167.219 198.286 166.377 203.216 165.502L203.478 166.979ZM172.772 170.927C170.268 171.079 167.687 171.19 165.017 171.25L164.983 169.75C167.633 169.691 170.195 169.581 172.681 169.429L172.772 170.927ZM165.017 171.25C162.59 171.305 160.072 171.326 157.486 171.317L157.491 169.817C160.066 169.826 162.571 169.805 164.983 169.75L165.017 171.25ZM142.424 170.994C137.438 170.81 132.377 170.556 127.383 170.26L127.472 168.763C132.456 169.058 137.507 169.311 142.48 169.495L142.424 170.994ZM112.362 169.238C107.018 168.831 101.95 168.404 97.3698 167.992L97.504 166.498C102.079 166.909 107.139 167.336 112.475 167.742L112.362 169.238ZM82.3814 166.548C80.0343 166.306 78.1682 166.105 76.8885 165.965C76.2487 165.895 75.7555 165.84 75.4221 165.803C75.2553 165.784 75.1286 165.769 75.0435 165.76C75.0009 165.755 74.9687 165.751 74.9471 165.749C74.9363 165.748 74.9282 165.747 74.9227 165.746C74.92 165.746 74.918 165.745 74.9166 165.745C74.9159 165.745 74.9153 165.745 74.915 165.745C74.9148 165.745 74.9147 165.745 74.9146 165.745C74.9146 165.745 74.9145 165.745 74.9145 165.745C74.9145 165.745 74.9144 165.745 75 165C75.0856 164.255 75.0856 164.255 75.0856 164.255C75.0856 164.255 75.0856 164.255 75.0857 164.255C75.0858 164.255 75.0858 164.255 75.086 164.255C75.0863 164.255 75.0868 164.255 75.0875 164.255C75.0888 164.255 75.0908 164.255 75.0934 164.256C75.0987 164.256 75.1067 164.257 75.1173 164.259C75.1386 164.261 75.1705 164.265 75.2127 164.269C75.2972 164.279 75.4233 164.293 75.5894 164.312C75.9215 164.349 76.4134 164.404 77.0518 164.474C78.3286 164.614 80.1916 164.814 82.5353 165.056L82.3814 166.548Z" fill="#6060FE"/>
</g>
<defs>
<linearGradient id="paint0_linear_1876_1084" x1="580" y1="80" x2="580" y2="280" gradientUnits="userSpaceOnUse">
<stop stop-color="#6060FE"/>
<stop offset="1" stop-color="#6060FE" stop-opacity="0"/>
</linearGradient>
<linearGradient id="paint1_linear_1876_1084" x1="580" y1="80" x2="580" y2="280" gradientUnits="userSpaceOnUse">
<stop stop-color="#6060FE"/>
<stop offset="1" stop-color="#6060FE" stop-opacity="0"/>
</linearGradient>
<clipPath id="clip0_1876_1084">
<rect width="1143" height="330" fill="white"/>
</clipPath>
</defs>
</svg>
