<svg width="185" height="34" viewBox="0 0 185 34" fill="none" xmlns="http://www.w3.org/2000/svg">
<path d="M23.6451 26.7821V12.6889C23.6451 12.4434 24.2247 11.8789 23.5389 11.4616L13.6844 4.91617L3.98504 11.2898L3.71969 23.448L8.3122 21.0589C11.1657 19.9584 14.2355 19.4184 17.3094 19.7048C19.0974 19.8725 23.7185 20.5884 22.2898 23.3089C21.3019 25.1866 18.5953 23.5748 16.9012 23.4398C13.811 23.1903 10.4758 23.898 7.77335 25.4034C5.68324 26.5652 3.59314 29.7357 1.04992 27.7843C-0.293138 26.7534 0.192647 25.5262 0.184483 24.2334C0.151825 20.1303 -0.203329 14.8612 0.168154 10.9012C0.298785 9.52254 0.641692 9.2239 1.65408 8.39754C3.64621 6.76527 9.81038 2.64163 12.0679 1.52481C13.0884 1.02163 13.9743 0.727087 15.0928 1.28754C18.3708 3.80345 22.3306 5.80799 25.58 8.31162C26.6904 9.16662 27.2742 9.33026 27.4252 10.9012C27.8171 14.9757 27.7314 22.7566 27.4252 26.9007C26.9966 32.6975 22.6041 29.9443 19.1097 29.6703C16.3379 29.4493 12.8312 29.5966 10.3207 30.8403C9.41032 31.2903 7.92847 32.8203 7.32838 32.9512C5.18521 33.4257 4.29529 31.2125 5.7404 29.5803C9.54095 25.2848 18.5586 25.3257 23.6532 26.7821H23.6451Z" fill="#6060FE"/>
<path d="M37.5275 10.832H33.6875V8.07202H40.4795V25.616H37.5275V10.832Z" fill="#262626"/>
<path d="M46.7619 10.832H42.9219V8.07202H49.7139V25.616H46.7619V10.832Z" fill="#262626"/>
<path d="M60.1531 25.616H57.0811V8.07202H60.1531V15.32H67.9291V8.07202H71.0011V25.616H67.9291V18.176H60.1531V25.616Z" fill="#262626"/>
<path d="M73.7656 19.664C73.7656 15.968 76.4296 13.424 80.1016 13.424C83.7736 13.424 86.4376 15.968 86.4376 19.664C86.4376 23.36 83.7736 25.904 80.1016 25.904C76.4296 25.904 73.7656 23.36 73.7656 19.664ZM76.6936 19.664C76.6936 21.824 78.0856 23.288 80.1016 23.288C82.1176 23.288 83.5096 21.824 83.5096 19.664C83.5096 17.504 82.1176 16.04 80.1016 16.04C78.0856 16.04 76.6936 17.504 76.6936 19.664Z" fill="#262626"/>
<path d="M87.8465 22.016H90.6305C90.6545 23.048 91.4225 23.696 92.7665 23.696C94.1345 23.696 94.8785 23.144 94.8785 22.28C94.8785 21.68 94.5665 21.248 93.5105 21.008L91.3745 20.504C89.2385 20.024 88.2065 19.016 88.2065 17.12C88.2065 14.792 90.1745 13.4 92.9105 13.4C95.5745 13.4 97.3745 14.936 97.3985 17.24H94.6145C94.5905 16.232 93.9185 15.584 92.7905 15.584C91.6385 15.584 90.9665 16.112 90.9665 17C90.9665 17.672 91.4945 18.104 92.5025 18.344L94.6385 18.848C96.6305 19.304 97.6385 20.216 97.6385 22.04C97.6385 24.44 95.5985 25.928 92.6705 25.928C89.7185 25.928 87.8465 24.344 87.8465 22.016Z" fill="#262626"/>
<path d="M103.9 25.616H100.972V16.208H98.6919V13.76H100.972V10.064H103.9V13.76H106.204V16.208H103.9V25.616Z" fill="#262626"/>
<path d="M107.112 22.016H109.896C109.92 23.048 110.688 23.696 112.032 23.696C113.4 23.696 114.144 23.144 114.144 22.28C114.144 21.68 113.832 21.248 112.776 21.008L110.64 20.504C108.504 20.024 107.472 19.016 107.472 17.12C107.472 14.792 109.44 13.4 112.176 13.4C114.84 13.4 116.64 14.936 116.664 17.24H113.88C113.856 16.232 113.184 15.584 112.056 15.584C110.904 15.584 110.232 16.112 110.232 17C110.232 17.672 110.76 18.104 111.768 18.344L113.904 18.848C115.896 19.304 116.904 20.216 116.904 22.04C116.904 24.44 114.864 25.928 111.936 25.928C108.984 25.928 107.112 24.344 107.112 22.016Z" fill="#262626"/>
<path d="M129.403 10.6038H125.746V14.5433H124.848V5.58423H130.114V6.4106H125.746V9.78968H129.403V10.6038Z" fill="#262626"/>
<path d="M132.334 14.5433H131.473V5.42468H132.334V14.5433Z" fill="#262626"/>
<path d="M135.902 14.6906C134.616 14.6906 133.853 13.9666 133.853 12.9029C133.853 11.8393 134.702 11.0906 136.11 10.9761L138.106 10.8125V10.612C138.106 9.42156 137.396 9.04928 136.51 9.04928C135.461 9.04928 134.836 9.52382 134.836 10.3379H134.048C134.048 9.11064 135.049 8.3252 136.535 8.3252C137.931 8.3252 138.955 9.02474 138.955 10.6284V14.5434H138.233L138.118 13.4797C137.743 14.2447 136.918 14.6947 135.898 14.6947L135.902 14.6906ZM136.102 13.9911C137.376 13.9911 138.11 13.1034 138.11 11.7902V11.4629L136.326 11.602C135.192 11.7002 134.73 12.2034 134.73 12.8784C134.73 13.6147 135.281 13.9911 136.102 13.9911Z" fill="#262626"/>
<path d="M141.78 14.5433L139.784 8.48877H140.67L141.858 12.1419C141.997 12.5429 142.107 12.956 142.234 13.4429C142.331 12.956 142.532 12.3424 142.597 12.1419L143.797 8.48877H144.683L145.871 12.1419C145.985 12.4692 146.132 12.9929 146.246 13.4429C146.373 12.9438 146.397 12.7924 146.61 12.1419L147.81 8.48877H148.708L146.659 14.5433H145.822L144.573 10.7388C144.422 10.2888 144.324 9.9124 144.246 9.54831C144.16 9.87559 144.058 10.2356 143.895 10.7388L142.646 14.5433H141.784H141.78Z" fill="#262626"/>
<path d="M150.672 14.5433H149.811V5.42468H150.672V14.5433Z" fill="#262626"/>
<path d="M155.036 14.6905C153.264 14.6905 152.076 13.4141 152.076 11.5118C152.076 9.60957 153.248 8.32092 154.97 8.32092C156.693 8.32092 157.718 9.48274 157.718 11.1968V11.6223H152.913C152.974 13.0991 153.75 13.95 155.048 13.95C156.036 13.95 156.673 13.5246 156.897 12.7227H157.722C157.395 13.9991 156.46 14.6864 155.04 14.6864L155.036 14.6905ZM154.975 9.06138C153.84 9.06138 153.089 9.81002 152.942 11.0005H156.861C156.861 9.83866 156.113 9.06138 154.975 9.06138Z" fill="#262626"/>
<path d="M158.583 12.8416H159.408C159.408 13.5411 159.93 13.9788 160.779 13.9788C161.714 13.9788 162.265 13.5779 162.265 12.9275C162.265 12.4284 162.016 12.1379 161.306 11.9661L160.269 11.7043C159.22 11.4425 158.71 10.8902 158.71 10.0638C158.71 9.00019 159.595 8.3252 160.894 8.3252C162.192 8.3252 162.992 9.02474 163.029 10.1497H162.192C162.167 9.45019 161.681 9.03701 160.869 9.03701C160.057 9.03701 159.546 9.4011 159.546 10.0516C159.546 10.5138 159.873 10.8411 160.534 11.0007L161.571 11.2625C162.62 11.5243 163.094 12.0111 163.094 12.8906C163.094 13.9788 162.171 14.6906 160.796 14.6906C159.42 14.6906 158.587 13.9666 158.587 12.8375L158.583 12.8416Z" fill="#262626"/>
<path d="M163.996 12.8416H164.821C164.821 13.5411 165.343 13.9788 166.192 13.9788C167.127 13.9788 167.678 13.5779 167.678 12.9275C167.678 12.4284 167.429 12.1379 166.719 11.9661L165.682 11.7043C164.633 11.4425 164.123 10.8902 164.123 10.0638C164.123 9.00019 165.008 8.3252 166.307 8.3252C167.605 8.3252 168.405 9.02474 168.442 10.1497H167.605C167.58 9.45019 167.095 9.03701 166.282 9.03701C165.47 9.03701 164.96 9.4011 164.96 10.0516C164.96 10.5138 165.286 10.8411 165.947 11.0007L166.984 11.2625C168.033 11.5243 168.507 12.0111 168.507 12.8906C168.507 13.9788 167.584 14.6906 166.209 14.6906C164.833 14.6906 164 13.9666 164 12.8375L163.996 12.8416Z" fill="#262626"/>
<path d="M126.893 25.9405C125.607 25.9405 124.848 25.2164 124.848 24.1528C124.848 23.0892 125.697 22.3405 127.105 22.226L129.101 22.0623V21.8619C129.101 20.6714 128.391 20.2992 127.505 20.2992C126.456 20.2992 125.831 20.7737 125.831 21.5878H125.044C125.044 20.3605 126.044 19.5751 127.526 19.5751C128.922 19.5751 129.946 20.2746 129.946 21.8783V25.7932H129.224L129.11 24.7296C128.734 25.4946 127.909 25.9446 126.889 25.9446L126.893 25.9405ZM127.093 25.2369C128.367 25.2369 129.101 24.3492 129.101 23.036V22.7087L127.317 22.8478C126.183 22.946 125.721 23.4492 125.721 24.1242C125.721 24.8605 126.268 25.2369 127.093 25.2369Z" fill="#262626"/>
<path d="M131.257 22.7741C131.257 20.8718 132.416 19.5709 134.18 19.5709C135.576 19.5709 136.6 20.385 136.837 21.6368H135.976C135.751 20.7982 135.029 20.3359 134.192 20.3359C132.967 20.3359 132.106 21.2727 132.106 22.7618C132.106 24.2509 132.906 25.1632 134.127 25.1632C135.025 25.1632 135.751 24.6641 135.988 23.8868H136.862C136.576 25.1264 135.502 25.9405 134.127 25.9405C132.416 25.9405 131.257 24.6764 131.257 22.7741Z" fill="#262626"/>
<path d="M137.739 22.7741C137.739 20.8718 138.899 19.5709 140.662 19.5709C142.058 19.5709 143.083 20.385 143.32 21.6368H142.458C142.234 20.7982 141.511 20.3359 140.674 20.3359C139.45 20.3359 138.588 21.2727 138.588 22.7618C138.588 24.2509 139.388 25.1632 140.609 25.1632C141.507 25.1632 142.234 24.6641 142.471 23.8868H143.344C143.058 25.1264 141.985 25.9405 140.609 25.9405C138.899 25.9405 137.739 24.6764 137.739 22.7741Z" fill="#262626"/>
<path d="M144.226 22.7618C144.226 20.9087 145.524 19.5709 147.295 19.5709C149.067 19.5709 150.365 20.9087 150.365 22.7618C150.365 24.615 149.067 25.9405 147.295 25.9405C145.524 25.9405 144.226 24.6027 144.226 22.7618ZM145.099 22.7496C145.099 24.1773 145.997 25.1632 147.295 25.1632C148.594 25.1632 149.492 24.1732 149.492 22.7496C149.492 21.3259 148.581 20.3482 147.295 20.3482C146.01 20.3482 145.099 21.3505 145.099 22.7496Z" fill="#262626"/>
<path d="M155.843 19.7347H156.705V25.7892H155.958L155.843 24.7624C155.505 25.462 154.672 25.9365 153.721 25.9365C152.296 25.9365 151.524 24.9588 151.524 23.4861V19.7224H152.398V23.212C152.398 24.652 153.035 25.1633 153.994 25.1633C155.154 25.1633 155.843 24.3861 155.843 22.9501V19.7347Z" fill="#262626"/>
<path d="M159.358 25.7891H158.497V19.7346H159.244L159.371 20.7859C159.771 20.0087 160.571 19.5709 161.444 19.5709C163.106 19.5709 163.792 20.5609 163.792 22.0868V25.7891H162.93V22.275C162.93 20.8596 162.294 20.3605 161.293 20.3605C160.056 20.3605 159.358 21.2605 159.358 22.6227V25.7891Z" fill="#262626"/>
<path d="M166.895 25.7892H166.045V20.4587H164.833V19.7346H166.045V17.8201H166.895V19.7346H168.107V20.4587H166.895V25.7892Z" fill="#262626"/>
<path d="M169.65 18.0697C169.299 18.0697 169.014 17.7833 169.014 17.4315C169.014 17.0796 169.299 16.781 169.65 16.781C170.002 16.781 170.3 17.0796 170.3 17.4315C170.3 17.7833 170.002 18.0697 169.65 18.0697ZM169.226 25.7892V19.7346H170.087V25.7892H169.226Z" fill="#262626"/>
<path d="M172.744 25.7891H171.883V19.7346H172.63L172.756 20.7859C173.156 20.0087 173.957 19.5709 174.83 19.5709C176.492 19.5709 177.177 20.5609 177.177 22.0868V25.7891H176.316V22.275C176.316 20.8596 175.679 20.3605 174.679 20.3605C173.442 20.3605 172.744 21.2605 172.744 22.6227V25.7891Z" fill="#262626"/>
<path d="M178.484 22.5859C178.484 20.9332 179.545 19.5709 181.317 19.5709C182.366 19.5709 183.166 20.0577 183.55 20.9455L183.636 19.7305H184.383V25.5968C184.383 27.3968 183.235 28.575 181.46 28.575C179.913 28.575 178.827 27.6996 178.59 26.235H179.451C179.639 27.2127 180.386 27.7855 181.472 27.7855C182.709 27.7855 183.533 26.9468 183.533 25.6827V24.2427C183.121 25.0937 182.284 25.5927 181.247 25.5927C179.525 25.5927 178.476 24.2305 178.476 22.5777L178.484 22.5859ZM179.345 22.5736C179.345 23.8132 180.108 24.8236 181.378 24.8236C182.648 24.8236 183.464 23.8746 183.464 22.5736C183.464 21.2727 182.717 20.3359 181.39 20.3359C180.064 20.3359 179.341 21.3505 179.341 22.5736H179.345Z" fill="#262626"/>
<path d="M13.4064 13.7568C15.381 13.6014 22.0473 13.8018 20.5867 17.185C19.7993 19.0055 17.3311 17.635 15.9685 17.4877C13.9245 17.2709 11.8969 17.6759 9.95897 18.2855C8.70241 18.6782 6.34023 20.3882 5.29173 18.8786C4.80624 18.1791 4.78584 17.1809 5.29173 16.4896C6.23415 15.1927 11.7337 13.8877 13.4104 13.7568H13.4064Z" fill="#6060FE"/>
</svg>
